<?xml version="1.0" encoding="UTF-8" standalone="no"?>
<svg
   xmlns:dc="http://purl.org/dc/elements/1.1/"
   xmlns:cc="http://creativecommons.org/ns#"
   xmlns:rdf="http://www.w3.org/1999/02/22-rdf-syntax-ns#"
   xmlns:svg="http://www.w3.org/2000/svg"
   xmlns="http://www.w3.org/2000/svg"
   xmlns:sodipodi="http://sodipodi.sourceforge.net/DTD/sodipodi-0.dtd"
   xmlns:inkscape="http://www.inkscape.org/namespaces/inkscape"
   fill="#000000"
   viewBox="0 0 24 24"
   width="48px"
   height="48px"
   id="svg4750"
   version="1.1"
   inkscape:version="0.91 r13725"
   sodipodi:docname="project.svg"
   inkscape:export-filename="K:\feuze\src\ui\base\icons\reel.png"
   inkscape:export-xdpi="90"
   inkscape:export-ydpi="90">
  <metadata
     id="metadata4758">
    <rdf:RDF>
      <cc:Work
         rdf:about="">
        <dc:format>image/svg+xml</dc:format>
        <dc:type
           rdf:resource="http://purl.org/dc/dcmitype/StillImage" />
      </cc:Work>
    </rdf:RDF>
  </metadata>
  <defs
     id="defs4756" />
  <sodipodi:namedview
     pagecolor="#ffffff"
     bordercolor="#666666"
     borderopacity="1"
     objecttolerance="10"
     gridtolerance="10"
     guidetolerance="10"
     inkscape:pageopacity="0"
     inkscape:pageshadow="2"
     inkscape:window-width="1536"
     inkscape:window-height="811"
     id="namedview4754"
     showgrid="false"
     inkscape:zoom="4.9166667"
     inkscape:cx="32.41391"
     inkscape:cy="21.329319"
     inkscape:window-x="-8"
     inkscape:window-y="-8"
     inkscape:window-maximized="1"
     inkscape:current-layer="svg4750" />
  <flowRoot
     xml:space="preserve"
     id="flowRoot9160"
     style="font-style:normal;font-variant:normal;font-weight:bold;font-stretch:normal;font-size:12.5px;line-height:89.99999762%;font-family:Montserrat;-inkscape-font-specification:'Montserrat, Bold';text-align:start;letter-spacing:0px;word-spacing:0px;writing-mode:lr-tb;text-anchor:start;fill:#000000;fill-opacity:1;stroke:none;stroke-width:1px;stroke-linecap:butt;stroke-linejoin:miter;stroke-opacity:1"
     transform="scale(0.5,0.5)"><flowRegion
       id="flowRegion9162"><rect
         id="rect9164"
         width="13.950377"
         height="27.613119"
         x="-14.885197"
         y="11.182508" /></flowRegion><flowPara
       id="flowPara9166">Pr</flowPara></flowRoot>  <text
     xml:space="preserve"
     style="font-style:normal;font-variant:normal;font-weight:bold;font-stretch:normal;font-size:6.25px;line-height:89.99999762%;font-family:Montserrat;-inkscape-font-specification:'Montserrat, Bold';text-align:start;letter-spacing:0px;word-spacing:0px;writing-mode:lr-tb;text-anchor:start;fill:#000000;fill-opacity:1;stroke:none;stroke-width:1px;stroke-linecap:butt;stroke-linejoin:miter;stroke-opacity:1"
     x="-7.7661896"
     y="13.069807"
     id="text9168"
     sodipodi:linespacing="89.999998%"><tspan
       sodipodi:role="line"
       id="tspan9170"
       x="-7.7661896"
       y="13.069807" /></text>
  <path
     style="fill:#1f1f1f;fill-opacity:1"
     d="m -29.804522,-7.4287274 c -1.135374,0 -2.049804,0.9144308 -2.049804,2.0498047 l 0,15.6044917 c 0,1.135374 0.91443,2.048829 2.049804,2.048829 l 15.208008,0 c 1.135374,0 2.049805,-0.913455 2.049805,-2.048829 l 0,-15.6044917 c 0,-1.1353739 -0.914431,-2.0498047 -2.049805,-2.0498047 l -0.53418,0 0,4.0351561 c 0,0.283845 -0.22885,0.5126955 -0.512695,0.5126955 l -1.416016,0 c -0.283844,0 -0.511718,-0.2288505 -0.511718,-0.5126955 l 0,-4.0351561 -12.233399,0 z m 7.222656,3.9072266 c 0.75534,0 1.49959,0.07462 2.234375,0.223633 0.739925,0.1438735 1.380394,0.3269015 1.919922,0.5478515 l 0,2.6435545 -0.316406,0 c -0.462453,-0.369962 -1.03,-0.6781635 -1.703125,-0.9248045 -0.667987,-0.25178 -1.351964,-0.37793 -2.050781,-0.37793 -0.246642,0 -0.492617,0.017742 -0.739258,0.053711 -0.241503,0.03083 -0.475084,0.093057 -0.701172,0.185547 -0.200396,0.077076 -0.372727,0.195203 -0.516601,0.354492 -0.143875,0.154151 -0.215821,0.330854 -0.215821,0.53125 0,0.3031635 0.115454,0.5367445 0.34668,0.701172 0.231226,0.159289 0.668251,0.3058555 1.310547,0.439453 0.421345,0.0873525 0.824584,0.172669 1.209961,0.254883 0.390515,0.082214 0.808822,0.194993 1.255859,0.338867 0.87866,0.2877485 1.526176,0.6812665 1.942383,1.1796875 0.421346,0.493283 0.631836,1.13545 0.631836,1.926758 0,1.1304395 -0.480533,2.049695 -1.441406,2.758789 -0.955736,0.7039555 -2.255139,1.055664 -3.899414,1.055664 -0.950598,0 -1.780164,-0.081666 -2.489258,-0.2460935 -0.703956,-0.169566 -1.364842,-0.3827305 -1.981446,-0.6396485 l 0,-2.751953 0.324219,0 c 0.611465,0.488144 1.294466,0.86392 2.049805,1.1259765 0.760477,0.2620565 1.490636,0.392578 2.189453,0.392578 0.179843,0 0.416098,-0.015068 0.708984,-0.045898 0.292887,-0.03083 0.531816,-0.08236 0.716797,-0.154297 0.226088,-0.092491 0.410814,-0.207944 0.554688,-0.3466795 0.149012,-0.138736 0.223633,-0.3448545 0.223633,-0.6171875 0,-0.25178 -0.108408,-0.4676185 -0.324219,-0.647461 -0.210673,-0.184981 -0.521548,-0.326199 -0.932617,-0.423828 -0.431623,-0.1027675 -0.889065,-0.197804 -1.372071,-0.2851565 -0.477867,-0.09249 -0.927287,-0.207944 -1.348633,-0.3466795 -0.966012,-0.31344 -1.662383,-0.7370945 -2.088867,-1.2714845 -0.421345,-0.539528 -0.631836,-1.20746 -0.631836,-2.003906 0,-1.0687795 0.477859,-1.940156 1.433594,-2.6132815 0.960874,-0.678264 2.194655,-1.017578 3.700195,-1.017578 z"
     id="rect9158-67"
     inkscape:connector-curvature="0" />
  <path
     style="fill:#1f1f1f;fill-opacity:1"
     d="M 8.8847656 4.5898438 C 6.6140179 4.5898438 4.7851562 6.4187054 4.7851562 8.6894531 L 4.7851562 39.898438 C 4.7851562 42.169185 6.6140179 43.996094 8.8847656 43.996094 L 39.302734 43.996094 C 41.573482 43.996094 43.400391 42.169185 43.400391 39.898438 L 43.400391 8.6894531 C 43.400391 6.4187054 41.573482 4.5898438 39.302734 4.5898438 L 38.234375 4.5898438 L 38.234375 13.140625 C 38.234375 13.708314 37.776674 14.166016 37.208984 14.166016 L 34.376953 14.166016 C 33.809264 14.166016 33.353516 13.708314 33.353516 13.140625 L 33.353516 4.5898438 L 8.8847656 4.5898438 z M 14.173828 12.820312 L 24.101562 12.820312 C 25.45809 12.820312 26.623321 12.898584 27.599609 13.052734 C 28.575898 13.206885 29.490782 13.54085 30.34375 14.054688 C 31.206995 14.568523 31.890972 15.236456 32.394531 16.058594 C 32.908367 16.870455 33.164062 17.891793 33.164062 19.125 C 33.164062 20.82066 32.769823 22.202705 31.978516 23.271484 C 31.197485 24.340264 30.076481 25.230359 28.617188 25.939453 L 36.279297 35.773438 L 29.048828 35.773438 L 22.791016 27.357422 L 20.0625 27.357422 L 20.0625 35.773438 L 14.173828 35.773438 L 14.173828 12.820312 z M 20.0625 17.044922 L 20.0625 23.226562 L 21.880859 23.226562 C 22.826318 23.226562 23.618702 23.180381 24.255859 23.087891 C 24.893016 22.9954 25.425799 22.783933 25.857422 22.455078 C 26.268491 22.1365 26.566972 21.786489 26.751953 21.40625 C 26.947211 21.015734 27.044922 20.497043 27.044922 19.849609 C 27.044922 19.274113 26.927771 18.78021 26.691406 18.369141 C 26.455042 17.958072 26.048153 17.634802 25.472656 17.398438 C 25.071864 17.23401 24.604702 17.136299 24.070312 17.105469 C 23.535923 17.064362 22.914172 17.044922 22.205078 17.044922 L 20.0625 17.044922 z "
     transform="scale(0.5,0.5)"
     id="rect9158" />
  <path
     style="fill:#1f1f1f;fill-opacity:1"
     d="m 31.603002,-22.443442 c -1.135374,0 -2.049805,0.914431 -2.049805,2.049805 l 0,15.6044918 c 0,1.135374 0.914431,2.048828 2.049805,2.048828 l 15.208984,0 c 1.135374,0 2.048829,-0.913454 2.048829,-2.048828 l 0,-15.6044918 c 0,-1.135374 -0.913455,-2.049805 -2.048829,-2.049805 l -0.689453,0 0,4.407227 c 0,0.283845 -0.227874,0.512695 -0.511718,0.512695 l -1.416016,0 c -0.283845,0 -0.512695,-0.22885 -0.512695,-0.512695 l 0,-4.407227 -12.079102,0 z m 2.644531,4.115235 4.871094,0 c 0.729648,0 1.343376,0.0649 1.841797,0.193359 0.503559,0.123321 0.948607,0.31072 1.333984,0.5625 0.462453,0.303164 0.814161,0.691333 1.055664,1.164063 0.246642,0.472729 0.370118,1.040276 0.370118,1.703125 0,0.513836 -0.08969,1.017459 -0.269532,1.510741 -0.179842,0.488145 -0.437491,0.899405 -0.771484,1.233399 -0.457314,0.452176 -0.967983,0.793188 -1.533203,1.024414 -0.560082,0.231226 -1.259127,0.34668 -2.09668,0.34668 l -1.841797,0 0,3.7382808 -2.959961,0 0,-11.4765618 z m 2.959961,2.143554 0,3.4375 0.847657,0 c 0.503559,0 0.917494,-0.03111 1.24121,-0.09277 0.328856,-0.06166 0.60327,-0.185137 0.824219,-0.370118 0.19012,-0.164427 0.32599,-0.359849 0.408203,-0.585937 0.08735,-0.231226 0.13086,-0.510988 0.13086,-0.839843 0,-0.323717 -0.08701,-0.600805 -0.261719,-0.832032 -0.174704,-0.236364 -0.377172,-0.40165 -0.608398,-0.49414 -0.308302,-0.123321 -0.609458,-0.189919 -0.902344,-0.200196 -0.292887,-0.01542 -0.682754,-0.02246 -1.170899,-0.02246 l -0.508789,0 z"
     id="rect9158-6"
     inkscape:connector-curvature="0" />
</svg>
